<svg xmlns="http://www.w3.org/2000/svg" viewBox="0 0 199.14 199.14"><defs><style>.cls-1{font-size:21px;fill:#f2f2f2;font-family:Exo-Black, Exo;font-weight:800;}</style></defs><title>About</title><g id="Livello_2" data-name="Livello 2"><g id="aBOUT"><circle cx="99.57" cy="99.57" r="99.57"/><text class="cls-1" transform="translate(80.82 22.09) rotate(-8.3)">A</text><text class="cls-1" transform="matrix(1, 0.03, -0.03, 1, 95.13, 20.04)">B</text><text class="cls-1" transform="translate(108.56 20.36) rotate(11.77)">O</text><text class="cls-1" transform="translate(123.02 23.38) rotate(22.36)">U</text><text class="cls-1" transform="translate(136.38 28.96) rotate(32.13)">T</text><text class="cls-1" transform="matrix(0.78, 0.62, -0.62, 0.78, 147.03, 35.9)"> </text><text class="cls-1" transform="translate(151.49 38.78) rotate(47.39)">M</text><text class="cls-1" transform="translate(163.92 52.68) rotate(58.44)">E</text><text class="cls-1" transform="translate(170.44 63.71) rotate(65.01)"> </text><text class="cls-1" transform="translate(172.78 68.65) rotate(69.78)">-</text><text class="cls-1" transform="matrix(0.27, 0.96, -0.96, 0.27, 175.38, 75.84)"> </text><text class="cls-1" transform="translate(177.08 80.94) rotate(81.79)">A</text><text class="cls-1" transform="matrix(-0.03, 1, -1, -0.03, 179.1, 95.25)">B</text><text class="cls-1" transform="translate(178.77 108.68) rotate(101.86)">O</text><text class="cls-1" transform="translate(175.73 123.13) rotate(112.44)">U</text><text class="cls-1" transform="translate(170.13 136.49) rotate(122.21)">T</text><text class="cls-1" transform="translate(163.17 147.13) rotate(128.72)"> </text><text class="cls-1" transform="matrix(-0.74, 0.68, -0.68, -0.74, 160.28, 151.58)">M</text><text class="cls-1" transform="matrix(-0.85, 0.52, -0.52, -0.85, 146.36, 164)">E</text><text class="cls-1" transform="translate(135.33 170.49) rotate(155.1)"> </text><text class="cls-1" transform="translate(130.38 172.83) rotate(159.87)">-</text><text class="cls-1" transform="matrix(-0.96, 0.26, -0.26, -0.96, 123.18, 175.41)"> </text><text class="cls-1" transform="matrix(-0.99, 0.14, -0.14, -0.99, 118.08, 177.11)">A</text><text class="cls-1" transform="translate(103.76 179.11) rotate(-178.19)">B</text><text class="cls-1" transform="translate(90.33 178.76) rotate(-168.05)">O</text><text class="cls-1" transform="translate(75.89 175.69) rotate(-157.47)">U</text><text class="cls-1" transform="translate(62.55 170.07) rotate(-147.7)">T</text><text class="cls-1" transform="matrix(-0.78, -0.63, 0.63, -0.78, 51.92, 163.1)"> </text><text class="cls-1" transform="translate(47.47 160.2) rotate(-132.44)">M</text><text class="cls-1" transform="translate(35.08 146.27) rotate(-121.39)">E</text><text class="cls-1" transform="translate(28.59 135.22) rotate(-114.81)"> </text><text class="cls-1" transform="translate(26.26 130.27) rotate(-110.04)">-</text><text class="cls-1" transform="translate(23.68 123.03) rotate(-105.25)"> </text><text class="cls-1" transform="translate(22 117.96) rotate(-98.03)">A</text><text class="cls-1" transform="translate(20.02 103.63) rotate(-88.1)">B</text><text class="cls-1" transform="translate(20.4 90.21) rotate(-77.96)">O</text><text class="cls-1" transform="translate(23.48 75.77) rotate(-67.38)">U</text><text class="cls-1" transform="matrix(0.54, -0.84, 0.84, 0.54, 29.12, 62.44)">T</text><text class="cls-1" transform="translate(36.12 51.82) rotate(-51.11)"> </text><text class="cls-1" transform="translate(39.02 47.37) rotate(-42.35)">M</text><text class="cls-1" transform="matrix(0.85, -0.52, 0.52, 0.85, 53, 34.99)">E</text><text class="cls-1" transform="translate(64.03 28.54) rotate(-24.72)"> </text><text class="cls-1" transform="translate(68.99 26.22) rotate(-19.96)">-</text><text class="cls-1" transform="translate(76.22 23.65) rotate(-15.16)"> </text></g></g></svg>