<svg xmlns="http://www.w3.org/2000/svg" viewBox="0 0 177.3 177.3"><defs><style>.cls-1{font-size:18px;fill:#e72586;font-family:Exo-Black, Exo;font-weight:800;}</style></defs><title>contacts-pink</title><g id="Livello_2" data-name="Livello 2"><g id="Livello_7" data-name="Livello 7"><text class="cls-1" transform="translate(88.43 15.4) rotate(3.92)">C</text><text class="cls-1" transform="translate(97.53 15.84) rotate(11.88)">O</text><text class="cls-1" transform="matrix(0.93, 0.36, -0.36, 0.93, 108.67, 18.06)">N</text><text class="cls-1" transform="matrix(0.87, 0.49, -0.49, 0.87, 119.48, 22.17)">T</text><text class="cls-1" transform="translate(127.1 26.2) rotate(36.53)">A</text><text class="cls-1" transform="matrix(0.72, 0.7, -0.7, 0.72, 135.9, 32.67)">C</text><text class="cls-1" transform="translate(142.61 39.09) rotate(51.62)">T</text><text class="cls-1" transform="translate(148.57 46.49) rotate(59.02)">S</text><text class="cls-1" transform="translate(153.4 54.7) rotate(64.06)"> </text><text class="cls-1" transform="translate(154.94 57.73) rotate(67.47)">-</text><text class="cls-1" transform="translate(156.97 62.61) rotate(70.91)"> </text><text class="cls-1" transform="matrix(0.24, 0.97, -0.97, 0.24, 158.23, 65.66)">C</text><text class="cls-1" transform="matrix(0.11, 0.99, -0.99, 0.11, 160.61, 74.44)">O</text><text class="cls-1" transform="matrix(-0.05, 1, -1, -0.05, 161.93, 85.71)">N</text><text class="cls-1" transform="matrix(-0.19, 0.98, -0.98, -0.19, 161.41, 97.29)">T</text><text class="cls-1" transform="matrix(-0.32, 0.95, -0.95, -0.32, 159.97, 105.77)">A</text><text class="cls-1" transform="translate(156.56 116.17) rotate(116.25)">C</text><text class="cls-1" transform="translate(152.53 124.55) rotate(123.61)">T</text><text class="cls-1" transform="translate(147.35 132.49) rotate(130.99)">S</text><text class="cls-1" transform="matrix(-0.72, 0.69, -0.69, -0.72, 141.03, 139.63)"> </text><text class="cls-1" transform="matrix(-0.76, 0.65, -0.65, -0.76, 138.63, 142.04)">-</text><text class="cls-1" transform="translate(134.64 145.47) rotate(142.74)"> </text><text class="cls-1" transform="matrix(-0.85, 0.53, -0.53, -0.85, 132.09, 147.64)">C</text><text class="cls-1" transform="translate(124.52 152.63) rotate(155.67)">O</text><text class="cls-1" transform="translate(114.21 157.42) rotate(164.7)">N</text><text class="cls-1" transform="matrix(-0.99, 0.12, -0.12, -0.99, 103.06, 160.5)">T</text><text class="cls-1" transform="matrix(-1, -0.02, 0.02, -1, 94.55, 161.81)">A</text><text class="cls-1" transform="translate(83.59 161.73) rotate(-171.97)">C</text><text class="cls-1" transform="translate(74.39 160.53) rotate(-164.59)">T</text><text class="cls-1" transform="translate(65.21 158.08) rotate(-157.12)">S</text><text class="cls-1" transform="translate(56.47 154.3) rotate(-152.07)"> </text><text class="cls-1" transform="matrix(-0.85, -0.52, 0.52, -0.85, 53.44, 152.76)">-</text><text class="cls-1" transform="matrix(-0.82, -0.57, 0.57, -0.82, 48.92, 150.02)"> </text><text class="cls-1" transform="translate(46.11 148.29) rotate(-140.32)">C</text><text class="cls-1" transform="matrix(-0.67, -0.74, 0.74, -0.67, 38.99, 142.62)">O</text><text class="cls-1" transform="matrix(-0.55, -0.83, 0.83, -0.55, 31.24, 134.3)">N</text><text class="cls-1" transform="translate(24.83 124.66) rotate(-115.25)">T</text><text class="cls-1" transform="translate(20.99 116.97) rotate(-107.83)">A</text><text class="cls-1" transform="matrix(-0.17, -0.98, 0.98, -0.17, 17.6, 106.58)">C</text><text class="cls-1" transform="translate(15.91 97.42) rotate(-92.61)">T</text><text class="cls-1" transform="matrix(0.08, -1, 1, 0.08, 15.39, 87.95)">S</text><text class="cls-1" transform="translate(16.26 78.44) rotate(-80.28)"> </text><text class="cls-1" transform="translate(16.77 75.09) rotate(-76.87)">-</text><text class="cls-1" transform="translate(17.96 69.97) rotate(-73.46)"> </text><text class="cls-1" transform="matrix(0.37, -0.93, 0.93, 0.37, 18.72, 66.74)">C</text><text class="cls-1" transform="matrix(0.49, -0.87, 0.87, 0.49, 21.9, 58.21)">O</text><text class="cls-1" transform="matrix(0.62, -0.78, 0.78, 0.62, 27.4, 48.28)">N</text><text class="cls-1" transform="translate(34.59 39.2) rotate(-43.33)">T</text><text class="cls-1" transform="matrix(0.81, -0.59, 0.59, 0.81, 40.71, 33.16)">A</text><text class="cls-1" transform="matrix(0.88, -0.47, 0.47, 0.88, 49.54, 26.7)">C</text><text class="cls-1" transform="translate(57.69 22.23) rotate(-20.77)">T</text><text class="cls-1" transform="matrix(0.97, -0.23, 0.23, 0.97, 66.53, 18.78)">S</text><text class="cls-1" transform="translate(75.83 16.67) rotate(-8.26)"> </text><text class="cls-1" transform="matrix(1, -0.08, 0.08, 1, 79.19, 16.12)">-</text><text class="cls-1" transform="translate(84.42 15.67) rotate(-1.52)"> </text></g></g></svg>