<svg xmlns="http://www.w3.org/2000/svg" viewBox="0 0 199.14 199.14"><defs><style>.cls-1{font-size:21px;fill:#f2f2f2;font-family:Exo-Black, Exo;font-weight:800;}</style></defs><title>Risorsa 4</title><g id="Livello_2" data-name="Livello 2"><g id="Contacts"><circle cx="99.57" cy="99.57" r="99.57"/><text class="cls-1" transform="translate(80.88 22.17) rotate(-9.05)">C</text><text class="cls-1" transform="translate(92.91 20.09) rotate(0.93)">O</text><text class="cls-1" transform="matrix(0.98, 0.2, -0.2, 0.98, 107.8, 20.26)">N</text><text class="cls-1" transform="matrix(0.93, 0.36, -0.36, 0.93, 122.61, 23.34)">T</text><text class="cls-1" transform="translate(133.51 27.44) rotate(30.48)">A</text><text class="cls-1" transform="translate(145.85 34.79) rotate(40.02)">C</text><text class="cls-1" transform="matrix(0.66, 0.76, -0.76, 0.66, 155.39, 42.81)">T</text><text class="cls-1" transform="matrix(0.53, 0.85, -0.85, 0.53, 163.7, 52.38)">S</text><text class="cls-1" transform="translate(170.25 63.33) rotate(64.71)"> </text><text class="cls-1" transform="translate(172.66 68.37) rotate(69.56)">-</text><text class="cls-1" transform="translate(175.32 75.67) rotate(74.41)"> </text><text class="cls-1" transform="translate(176.97 80.88) rotate(80.95)">C</text><text class="cls-1" transform="translate(179.05 92.92) rotate(90.93)">O</text><text class="cls-1" transform="translate(178.87 107.83) rotate(101.32)">N</text><text class="cls-1" transform="translate(175.8 122.64) rotate(111.39)">T</text><text class="cls-1" transform="matrix(-0.51, 0.86, -0.86, -0.51, 171.69, 133.54)">A</text><text class="cls-1" transform="translate(164.34 145.87) rotate(130.05)">C</text><text class="cls-1" transform="matrix(-0.76, 0.66, -0.66, -0.76, 156.31, 155.42)">T</text><text class="cls-1" transform="translate(146.74 163.71) rotate(148.13)">S</text><text class="cls-1" transform="matrix(-0.9, 0.43, -0.43, -0.9, 135.78, 170.26)"> </text><text class="cls-1" transform="translate(130.74 172.68) rotate(159.58)">-</text><text class="cls-1" transform="translate(123.44 175.33) rotate(164.43)"> </text><text class="cls-1" transform="translate(118.23 176.98) rotate(170.98)">C</text><text class="cls-1" transform="translate(106.14 179.05) rotate(-179.07)">O</text><text class="cls-1" transform="translate(91.28 178.87) rotate(-168.66)">N</text><text class="cls-1" transform="translate(76.48 175.79) rotate(-158.59)">T</text><text class="cls-1" transform="translate(65.6 171.69) rotate(-149.5)">A</text><text class="cls-1" transform="matrix(-0.77, -0.64, 0.64, -0.77, 53.25, 164.32)">C</text><text class="cls-1" transform="translate(43.7 156.29) rotate(-130.92)">T</text><text class="cls-1" transform="translate(35.41 146.71) rotate(-121.85)">S</text><text class="cls-1" transform="translate(28.87 135.76) rotate(-115.25)"> </text><text class="cls-1" transform="translate(26.45 130.71) rotate(-110.4)">-</text><text class="cls-1" transform="translate(23.81 123.44) rotate(-105.57)"> </text><text class="cls-1" transform="translate(22.15 118.2) rotate(-99)">C</text><text class="cls-1" transform="translate(20.09 106.14) rotate(-89.07)">O</text><text class="cls-1" transform="matrix(0.2, -0.98, 0.98, 0.2, 20.27, 91.28)">N</text><text class="cls-1" transform="matrix(0.37, -0.93, 0.93, 0.37, 23.35, 76.48)">T</text><text class="cls-1" transform="translate(27.47 65.57) rotate(-59.47)">A</text><text class="cls-1" transform="translate(34.84 53.22) rotate(-49.91)">C</text><text class="cls-1" transform="translate(42.87 43.68) rotate(-40.9)">T</text><text class="cls-1" transform="matrix(0.85, -0.53, 0.53, 0.85, 52.45, 35.39)">S</text><text class="cls-1" transform="translate(63.41 28.85) rotate(-25.22)"> </text><text class="cls-1" transform="translate(68.43 26.45) rotate(-20.4)">-</text><text class="cls-1" transform="translate(75.73 23.8) rotate(-15.54)"> </text></g></g></svg>