<svg xmlns="http://www.w3.org/2000/svg" viewBox="0 0 129.88 117.12"><defs><style>.cls-1{fill:#e72586;}</style></defs><title>Risorsa 3</title><g id="Livello_2" data-name="Livello 2"><g id="Livello_1-2" data-name="Livello 1"><path class="cls-1" d="M32.19,48.85c-.24-.91.37-1.29.81-1.74,4.34-4.36,8.87-8.54,13-13.11,5.72-6.37,12.3-11.87,17.83-18.44,2.88-3.43,4-6.94,2.16-10.94-2-4.54-7.67-5.84-12-3.43s-6.88,6.7-10.66,9.7a53.23,53.23,0,0,0-9.13,9.18c-3,3.87-6.9,6.71-10,10.42s-6.86,7-10.33,10.43c-3.24,3.23-6.32,6.65-9.76,9.66-5.37,4.7-5.54,11-.08,15.61,2.13,1.82,4,3.94,6,6,3.26,3.3,6.51,6.63,9.77,9.93S26.59,88.89,30,92.34s6.66,7,10.07,10.39c3.21,3.2,6.65,6.18,9.8,9.43,4.68,4.85,8.33,7,13.62,2.52a8.94,8.94,0,0,0,.81-13.17c-3-3.11-6.13-6.12-9.18-9.19-4.87-4.89-9.88-9.65-14.53-14.73C37.7,74.47,34,72,31.73,67.5h4.83c41.43,0,39.85,0,81.27,0a20.55,20.55,0,0,0,6.68-.79c4.28-1.42,7-8.44,4.24-12.66s-6.27-4.69-10.41-4.69c-41.69,0-40.37,0-82.06,0C34.91,49.34,33.39,49.88,32.19,48.85Z"/><path class="cls-1" d="M32.19,48.85c1.2,1,2.72.49,4.09.49,41.69,0,40.37,0,82.06,0,4.14,0,7.61.49,10.41,4.69s0,11.24-4.24,12.66a20.55,20.55,0,0,1-6.68.79c-41.42,0-39.84,0-81.27,0H31.73c2.29,4.5,6,7,8.83,10.09,4.65,5.08,9.66,9.84,14.53,14.73,3,3.07,6.16,6.08,9.18,9.19a8.94,8.94,0,0,1-.81,13.17c-5.29,4.46-8.94,2.33-13.62-2.52-3.15-3.25-6.59-6.23-9.8-9.43-3.41-3.4-6.7-7-10.07-10.39s-6.8-6.84-10.19-10.27S13.27,75.44,10,72.14c-2-2-3.86-4.13-6-6-5.46-4.66-5.29-10.91.08-15.61,3.44-3,6.52-6.43,9.76-9.66,3.47-3.46,7.2-6.69,10.33-10.43s7-6.55,10-10.42a53.23,53.23,0,0,1,9.13-9.18c3.78-3,6.3-7.24,10.66-9.7S63.92.08,66,4.62c1.8,4,.72,7.51-2.16,10.94C58.27,22.13,51.69,27.63,46,34c-4.1,4.57-8.63,8.75-13,13.11C32.56,47.56,32,47.94,32.19,48.85Z"/></g></g></svg>