<svg xmlns="http://www.w3.org/2000/svg" viewBox="0 0 177.3 177.3"><defs><style>.cls-1{font-size:18px;fill:#e72586;font-family:Exo-Black, Exo;font-weight:800;}</style></defs><title>Graphic Design</title><g id="Livello_2" data-name="Livello 2"><g id="Livello_3" data-name="Livello 3"><text class="cls-1" transform="translate(88.42 15.34) rotate(4.51)">G</text><text class="cls-1" transform="translate(99.96 16.23) rotate(13.33)">R</text><text class="cls-1" transform="matrix(0.92, 0.38, -0.38, 0.92, 110.63, 18.67)">A</text><text class="cls-1" transform="matrix(0.85, 0.52, -0.52, 0.85, 121.64, 23.19)">P</text><text class="cls-1" transform="matrix(0.76, 0.65, -0.65, 0.76, 130.95, 28.72)">H</text><text class="cls-1" transform="matrix(0.68, 0.73, -0.73, 0.68, 140.33, 36.93)">I</text><text class="cls-1" transform="matrix(0.6, 0.8, -0.8, 0.6, 143.9, 40.54)">C</text><text class="cls-1" transform="translate(149.92 48.77) rotate(58.65)"> </text><text class="cls-1" transform="translate(152.24 52.12) rotate(64.93)">D</text><text class="cls-1" transform="translate(157.24 62.84) rotate(73.66)">E</text><text class="cls-1" transform="translate(160.18 72.77) rotate(81.76)">S</text><text class="cls-1" transform="translate(161.55 83) rotate(87.76)">I</text><text class="cls-1" transform="translate(161.96 88.04) rotate(94.22)">G</text><text class="cls-1" transform="matrix(-0.23, 0.97, -0.97, -0.23, 161.19, 99.58)">N</text><text class="cls-1" transform="matrix(-0.34, 0.94, -0.94, -0.34, 158.05, 111.66)"> </text><text class="cls-1" transform="translate(156.65 115.61) rotate(114.15)">-</text><text class="cls-1" transform="translate(154.15 121.13) rotate(118.19)"> </text><text class="cls-1" transform="translate(152.43 124.83) rotate(124.36)">G</text><text class="cls-1" transform="translate(145.89 134.42) rotate(133.16)">R</text><text class="cls-1" transform="translate(138.45 142.47) rotate(142.05)">A</text><text class="cls-1" transform="translate(129.08 149.78) rotate(150.92)">P</text><text class="cls-1" transform="translate(119.69 155.13) rotate(160.02)">H</text><text class="cls-1" transform="matrix(-0.97, 0.23, -0.23, -0.97, 107.9, 159.2)">I</text><text class="cls-1" transform="translate(103.01 160.5) rotate(172.91)">C</text><text class="cls-1" transform="translate(92.87 161.63) rotate(178.48)"> </text><text class="cls-1" transform="matrix(-1, -0.08, 0.08, -1, 88.79, 161.97)">D</text><text class="cls-1" transform="translate(77 160.99) rotate(-166.64)">E</text><text class="cls-1" transform="matrix(-0.93, -0.37, 0.37, -0.93, 66.94, 158.64)">S</text><text class="cls-1" transform="matrix(-0.89, -0.46, 0.46, -0.89, 57.37, 154.76)">I</text><text class="cls-1" transform="matrix(-0.83, -0.56, 0.56, -0.83, 52.81, 152.62)">G</text><text class="cls-1" transform="matrix(-0.73, -0.69, 0.69, -0.73, 43.18, 146.21)">N</text><text class="cls-1" transform="matrix(-0.65, -0.76, 0.76, -0.65, 34.25, 137.48)"> </text><text class="cls-1" transform="matrix(-0.59, -0.81, 0.81, -0.59, 31.51, 134.3)">-</text><text class="cls-1" transform="matrix(-0.53, -0.85, 0.85, -0.53, 27.95, 129.4)"> </text><text class="cls-1" transform="matrix(-0.44, -0.9, 0.9, -0.44, 25.58, 126.06)">G</text><text class="cls-1" transform="translate(20.49 115.64) rotate(-107.08)">R</text><text class="cls-1" transform="translate(17.2 105.2) rotate(-98.1)">A</text><text class="cls-1" transform="translate(15.5 93.43) rotate(-89.07)">P</text><text class="cls-1" transform="translate(15.55 82.59) rotate(-80.28)">H</text><text class="cls-1" transform="matrix(0.29, -0.96, 0.96, 0.29, 17.84, 70.35)">I</text><text class="cls-1" transform="translate(19.14 65.46) rotate(-67.38)">C</text><text class="cls-1" transform="translate(23.18 56.1) rotate(-61.75)"> </text><text class="cls-1" transform="matrix(0.57, -0.82, 0.82, 0.57, 24.91, 52.38)">D</text><text class="cls-1" transform="translate(31.63 42.64) rotate(-46.84)">E</text><text class="cls-1" transform="matrix(0.78, -0.63, 0.63, 0.78, 38.69, 35.07)">S</text><text class="cls-1" transform="translate(46.78 28.7) rotate(-32.84)">I</text><text class="cls-1" transform="translate(50.9 25.78) rotate(-26.27)">G</text><text class="cls-1" transform="translate(61.24 20.59) rotate(-16.86)">N</text><text class="cls-1" transform="translate(73.25 17.18) rotate(-10.33)"> </text><text class="cls-1" transform="matrix(0.99, -0.11, 0.11, 0.99, 77.38, 16.38)">-</text><text class="cls-1" transform="translate(83.4 15.74) rotate(-2.31)"> </text><text class="cls-1" transform="translate(87.61 15.56) rotate(0.93)"> </text></g></g></svg>