<svg xmlns="http://www.w3.org/2000/svg" viewBox="0 0 180.76 180.76"><defs><style>.cls-1{font-size:20px;fill:#f2f2f2;font-family:Exo-Black, Exo;font-weight:800;}</style></defs><title>Home</title><g id="Livello_2" data-name="Livello 2"><g id="Livello_6" data-name="Livello 6"><text class="cls-1" transform="translate(90.1 16.97) rotate(5.32)">H</text><text class="cls-1" transform="translate(104.43 18.32) rotate(16.54)">O</text><text class="cls-1" transform="matrix(0.87, 0.48, -0.48, 0.87, 117.74, 21.99)">M</text><text class="cls-1" transform="translate(133.27 30.92) rotate(40.56)">E</text><text class="cls-1" transform="translate(142.51 39.13) rotate(47.43)"> </text><text class="cls-1" transform="translate(146.17 43.07) rotate(52.44)">-</text><text class="cls-1" transform="translate(150.68 49.03) rotate(57.47)"> </text><text class="cls-1" transform="translate(153.75 53.29) rotate(65.23)">H</text><text class="cls-1" transform="translate(159.78 66.39) rotate(76.51)">O</text><text class="cls-1" transform="translate(163.24 79.73) rotate(88.84)">M</text><text class="cls-1" transform="translate(163.34 97.65) rotate(100.35)">E</text><text class="cls-1" transform="matrix(-0.3, 0.95, -0.95, -0.3, 160.89, 109.78)"> </text><text class="cls-1" transform="translate(159.31 114.93) rotate(112.4)">-</text><text class="cls-1" transform="matrix(-0.46, 0.89, -0.89, -0.46, 156.41, 121.79)"> </text><text class="cls-1" transform="translate(154.26 126.59) rotate(125.2)">H</text><text class="cls-1" transform="matrix(-0.72, 0.69, -0.69, -0.72, 145.93, 138.36)">O</text><text class="cls-1" transform="matrix(-0.85, 0.52, -0.52, -0.85, 136.13, 148.08)">M</text><text class="cls-1" transform="translate(120.69 157.16) rotate(160.31)">E</text><text class="cls-1" transform="translate(108.99 161.1) rotate(167.27)"> </text><text class="cls-1" transform="translate(103.74 162.31) rotate(172.33)">-</text><text class="cls-1" transform="translate(96.32 163.25) rotate(177.35)"> </text><text class="cls-1" transform="matrix(-1, -0.09, 0.09, -1, 91.1, 163.79)">H</text><text class="cls-1" transform="matrix(-0.96, -0.28, 0.28, -0.96, 76.72, 162.52)">O</text><text class="cls-1" transform="translate(63.41 158.92) rotate(-151.34)">M</text><text class="cls-1" transform="translate(47.82 150.08) rotate(-139.76)">E</text><text class="cls-1" transform="matrix(-0.68, -0.73, 0.73, -0.68, 38.54, 141.92)"> </text><text class="cls-1" transform="matrix(-0.61, -0.79, 0.79, -0.61, 34.85, 138)">-</text><text class="cls-1" transform="translate(30.32 132.07) rotate(-122.86)"> </text><text class="cls-1" transform="matrix(-0.42, -0.91, 0.91, -0.42, 27.22, 127.83)">H</text><text class="cls-1" transform="translate(21.12 114.78) rotate(-103.83)">O</text><text class="cls-1" transform="translate(17.57 101.41) rotate(-91.45)">M</text><text class="cls-1" transform="translate(17.39 83.51) rotate(-79.96)">E</text><text class="cls-1" transform="translate(19.76 71.39) rotate(-73.01)"> </text><text class="cls-1" transform="translate(21.31 66.22) rotate(-67.93)">-</text><text class="cls-1" transform="matrix(0.46, -0.89, 0.89, 0.46, 24.17, 59.34)"> </text><text class="cls-1" transform="translate(26.3 54.54) rotate(-55.12)">H</text><text class="cls-1" transform="matrix(0.72, -0.69, 0.69, 0.72, 34.56, 42.71)">O</text><text class="cls-1" transform="translate(44.31 32.94) rotate(-31.65)">M</text><text class="cls-1" transform="translate(59.71 23.77) rotate(-20)">E</text><text class="cls-1" transform="translate(71.39 19.77) rotate(-13.04)"> </text><text class="cls-1" transform="translate(76.63 18.52) rotate(-7.99)">-</text><text class="cls-1" transform="matrix(1, -0.05, 0.05, 1, 84.01, 17.55)"> </text></g></g></svg>