<svg xmlns="http://www.w3.org/2000/svg" viewBox="0 0 180.76 180.76"><defs><style>.cls-1{font-size:20px;fill:#f2f2f2;font-family:Exo-Black, Exo;font-weight:800;}</style></defs><title>Illustration</title><g id="Livello_2" data-name="Livello 2"><g id="Livello_4" data-name="Livello 4"><text class="cls-1" transform="matrix(1, 0.04, -0.04, 1, 90.25, 17.26)">I</text><text class="cls-1" transform="translate(96.37 17.36) rotate(8.82)">L</text><text class="cls-1" transform="matrix(0.96, 0.3, -0.3, 0.96, 106.93, 19)">L</text><text class="cls-1" transform="translate(116.86 21.91) rotate(26.6)">U</text><text class="cls-1" transform="translate(129.08 28.11) rotate(36.58)">S</text><text class="cls-1" transform="matrix(0.7, 0.72, -0.72, 0.7, 138.59, 35.16)">T</text><text class="cls-1" transform="translate(146.89 43.63) rotate(55.36)">R</text><text class="cls-1" transform="matrix(0.41, 0.91, -0.91, 0.41, 154.14, 54.01)">A</text><text class="cls-1" transform="translate(159.4 65.62) rotate(74.99)">T</text><text class="cls-1" transform="translate(162.33 77.24) rotate(82.1)">I</text><text class="cls-1" transform="translate(163.33 83.18) rotate(89.07)">O</text><text class="cls-1" transform="translate(163.48 97.21) rotate(100.89)">N</text><text class="cls-1" transform="matrix(-0.32, 0.95, -0.95, -0.32, 160.47, 111.23)"> </text><text class="cls-1" transform="matrix(-0.4, 0.92, -0.92, -0.4, 158.88, 116.11)">-</text><text class="cls-1" transform="translate(155.97 122.71) rotate(118.25)"> </text><text class="cls-1" transform="translate(153.55 127.25) rotate(122.71)">I</text><text class="cls-1" transform="matrix(-0.63, 0.77, -0.77, -0.63, 150.34, 132.49)">L</text><text class="cls-1" transform="translate(143.58 140.75) rotate(137.63)">L</text><text class="cls-1" transform="translate(136.04 147.84) rotate(146.88)">U</text><text class="cls-1" transform="translate(124.54 155.26) rotate(156.88)">S</text><text class="cls-1" transform="translate(113.65 159.92) rotate(166.24)">T</text><text class="cls-1" transform="translate(102.12 162.79) rotate(175.85)">R</text><text class="cls-1" transform="translate(89.5 163.76) rotate(-173.97)">A</text><text class="cls-1" transform="translate(76.84 162.45) rotate(-164.7)">T</text><text class="cls-1" transform="matrix(-0.92, -0.38, 0.38, -0.92, 65.32, 159.1)">I</text><text class="cls-1" transform="matrix(-0.86, -0.51, 0.51, -0.86, 59.6, 157.04)">O</text><text class="cls-1" transform="matrix(-0.75, -0.66, 0.66, -0.75, 47.53, 150)">N</text><text class="cls-1" transform="translate(36.96 140.29) rotate(-131.11)"> </text><text class="cls-1" transform="matrix(-0.59, -0.81, 0.81, -0.59, 33.55, 136.44)">-</text><text class="cls-1" transform="translate(29.33 130.61) rotate(-121.48)"> </text><text class="cls-1" transform="translate(26.61 126.2) rotate(-116.99)">I</text><text class="cls-1" transform="translate(23.72 120.83) rotate(-110.35)">L</text><text class="cls-1" transform="matrix(-0.21, -0.98, 0.98, -0.21, 20, 110.81)">L</text><text class="cls-1" transform="matrix(-0.05, -1, 1, -0.05, 17.71, 100.7)">U</text><text class="cls-1" transform="matrix(0.13, -0.99, 0.99, 0.13, 17.15, 87.03)">S</text><text class="cls-1" transform="translate(18.62 75.29) rotate(-73.46)">T</text><text class="cls-1" transform="translate(21.96 63.9) rotate(-63.79)">R</text><text class="cls-1" transform="translate(27.5 52.51) rotate(-53.49)">A</text><text class="cls-1" transform="translate(35.07 42.27) rotate(-44.3)">T</text><text class="cls-1" transform="translate(43.79 34.02) rotate(-37.24)">I</text><text class="cls-1" transform="translate(48.46 30.11) rotate(-29.34)">O</text><text class="cls-1" transform="translate(60.62 23.24) rotate(-18.28)">N</text><text class="cls-1" transform="translate(74.32 19.05) rotate(-10.67)"> </text><text class="cls-1" transform="matrix(0.99, -0.1, 0.1, 0.99, 79.36, 18.06)">-</text><text class="cls-1" transform="matrix(1, -0.02, 0.02, 1, 86.55, 17.37)"> </text></g></g></svg>