<?xml version="1.0" encoding="utf-8"?>
<!-- Generator: Adobe Illustrator 24.0.0, SVG Export Plug-In . SVG Version: 6.00 Build 0)  -->
<svg version="1.1" id="Livello_1" xmlns="http://www.w3.org/2000/svg" xmlns:xlink="http://www.w3.org/1999/xlink" x="0px" y="0px"
	 viewBox="0 0 940.4 235.3" style="enable-background:new 0 0 940.4 235.3;" xml:space="preserve">
<style type="text/css">
	.st0{fill:#FFFFFF;}
	.st1{fill:#010000;}
	.st2{fill:#FC008B;}
	.st3{fill:#710746;}
	.st4{fill:#848484;}
	.st5{fill:#E6ECE9;}
	.st6{fill:#E8A2CC;}
	.st7{fill:#020000;}
</style>
<rect x="0.5" y="0.1" width="939.9" height="235.1"/>
<rect x="15.1" y="6.5" class="st0" width="689.9" height="223.9"/>
<path d="M0.5,0.1c309.6,0,619.4,0,929.1-0.2c8.9,0,10.8,1.9,10.8,10.8c-0.5,72.1-0.2,144,0,216.1c0,7-1.4,8.5-8.5,8.5
	c-307.7-0.2-615.5-0.2-923.2,0c-7,0-8.5-1.4-8.5-8.5C0.8,151.2,0.5,75.8,0.5,0.1z M100.8,174.9c-1.2,9.2-6.6,15.5-9.2,22.8
	c-1.9,5.4-5.6,12.2,1.4,15.5c7.3,3.8,9.9-3.5,12.4-8.7c1.4-2.8,2.3-5.9,3.8-8.7c8.9-19.3,18.3-38.1,31.7-54.7
	c5.2-6.3,12-11.3,15.7-18.8c2.3-4.7,4.7-9.9-0.5-13.9s-9.6-0.7-12.9,3.8c-7.8,9.9-15.7,19.5-23.5,29.4
	c-11.3,14.1-25.8,22.6-43.7,25.1c-7.8,1.2-12.2-1.4-12.2-9.9c0.2-18.3,2.3-36.2,14.6-51c25.8-31,56.1-56.6,93-73.8
	c4.2-1.9,11.7-2.6,8.5-9.9c-2.6-6.1-8.7-3.3-13.6-1.9c-2.6,0.9-5.2,2.1-7.5,3.3c-30.1,14.6-55.2,35.2-78.7,58.7
	c-20.4,20.4-30.8,44.9-30.3,73.8c0.2,19,10.1,27.2,28.7,24.2C85.8,179.1,92.9,176.8,100.8,174.9z M155.3,188.1
	c0.2,5.4,1.2,9.2,6.1,9.9c5.2,0.7,7.8-2.6,9.4-6.8c6.6-18.8,14.6-37.1,26.3-53.6c6.1-8.7,14.1-14.6,24-17.9c2.6-0.7,5.4-2.3,7.8,0.2
	c2.3,2.6,0.9,5.2-0.2,7.5c-3.5,7-7.3,13.9-11.3,20.7c-6.1,10.8-12.7,21.6-18.6,32.7c-2.3,4.2-3.1,9.4,1.4,12.9
	c4.5,3.5,8.7,0.7,10.8-3.1c12.2-20.4,25.4-40.6,33.4-63.2c5.4-15.5-5.6-26.5-21.8-23c-4.9,1.2-9.6,3.5-14.3,5.4
	c-2.1,0.7-4.2,3.1-6.6,1.4c-3.1-2.3-0.5-4.9,0.5-7.5c6.6-19.7,13.4-39.2,19.7-59c0.9-3.1,3.8-7.5-0.5-9.4c-4.7-1.9-6.1,3.5-8.2,6.6
	c-0.9,1.2-1.4,2.8-1.9,4.2c-17.1,38.1-31,77.8-46.7,116.3C160.7,171.1,156.5,179.6,155.3,188.1z M252.1,167.2
	c-0.2,11.7,6.1,19,16.4,23.3c6.6,2.6,13.4,4.2,20.2,6.1c5.2,1.4,10.8,1.9,12.5-4.7c1.4-6.1-2.8-9.4-8.2-11
	c-6.3-1.9-12.9-3.1-19.3-5.4c-5.6-1.9-7.5-6.6-5.6-12.5c1.9-6.1,6.3-6.3,11.3-4.9c6.1,1.6,11.7,4.2,17.9,5.6
	c9.9,2.6,16.9-3.3,20.7-15.7c2.8-9.9-0.9-18.1-9.6-20.7C285.7,120.2,252.6,143.9,252.1,167.2z M597.2,168.1
	c0.9-13.4,9.6-20.4,16-28.9c2.3-3.1,4.7-6.8,0.9-10.6c-3.8-3.8-7.5-0.9-10.3,1.6c-11.7,10.3-20.2,22.8-22.8,38.5
	c-1.2,6.3-1.4,12.9,4.9,16.9c6.1,3.8,12.5,2.1,17.4-2.1c6.8-6.1,12.4-8.2,19,0.2c2.8,3.8,8,4.7,12.9,4.7c4.2,0,8-0.9,9.2-5.6
	c1.2-4.7-1.4-7.5-5.6-8.7c-7.8-2.1-11.7-7.3-12.7-15c-0.5-3.8-1.9-6.8-5.9-7.8c-4.5-0.9-7.3,1.6-9.6,4.9
	C606.6,160.3,605,166,597.2,168.1z M333.6,171.9c0.2,0,0.5,0,0.5,0c0,0.7,0,1.6,0,2.3c0.5,7.3-1.4,17.4,8.7,17.6
	c10.1,0.2,7.3-10.1,7.8-16.7c1.6-23.7,12.9-34.5,35.5-33.1c5.2,0.2,10.1,0.2,10.6-6.1c0.5-5.6-3.5-8.2-8.5-9.4
	c-11.7-2.6-22.6-0.2-31.9,7.3c-2.8,2.3-5.2,6.1-8.9,0.2c-5.2-8-7.5-2.1-8.5,2.8C336.7,148.6,335.3,160.3,333.6,171.9z M536.6,185
	c-0.5-11.3-8.2-26.5-12.9-42.5c-1.2-3.8-2.1-9.9-7.8-8.5c-5.4,1.4-3.3,7.3-3.1,11.3c0.5,12.9,6.1,24.9,8.2,37.6
	c3.5,19-5.6,27.5-24.2,22.6c-3.3-0.9-6.1-1.4-8.5,1.4c-2.6,3.1-1.9,6.6,0,9.9c2.8,4.7,7.3,6.8,12.7,7
	C521.3,225.4,536.8,210.8,536.6,185z M399.4,154.9c-0.5,0-0.7,0-1.2,0c0.2,6.6,0.5,13.4,0.9,20c0.5,5.2,1.2,10.8,8,10.8
	c7.8,0,7.8-6.3,8.5-11.7c0.2-3.5,0.2-7,0.9-10.6c3.5-18.3,12.2-23.5,29.6-17.6c4,1.2,8,2.1,10.3-2.1c2.6-4.7,0.5-8.2-3.1-11.3
	c-11-9.6-24.9-9.4-36.2,0.2c-2.1,1.9-3.8,5.9-7.5,2.6c-9.2-8.5-9.9-0.9-10.3,5.9C398.9,145.5,399.4,150.2,399.4,154.9z M545.1,157.5
	c-0.2,0-0.7,0-0.9,0c0.7,7.8,1.2,15.5,2.3,23.3c0.7,4.2,3.5,7,8.2,6.6c4.2-0.5,6.1-4,5.9-7.5c-1.2-14.1-2.6-28-4.2-41.8
	c-0.5-3.3-2.8-5.6-6.8-4.9c-3.3,0.5-4.5,3.1-4.7,5.9C544.8,145.1,545.1,151.2,545.1,157.5z M483.7,154.5c-0.7-6.3-1.2-13.4-2.3-20.2
	c-0.5-3.1-2.8-5.6-6.6-5.2c-3.3,0.5-4.5,3.3-4.5,5.9c-0.2,12-0.2,24-0.2,35.9c0,3.8,2.3,6.6,6.6,6.6s6.6-2.8,6.8-6.6
	C484.2,165.7,483.7,160.3,483.7,154.5z M786.3,176.5c-2.1-4.9-1.6-12.7-10.1-14.6c-3.1-0.7-4-2.8-4.9-5.6
	c-2.6-8.7-10.6-8.2-17.4-9.2c-4-0.7-5.2,3.1-5.4,6.3c-0.2,3.8,1.9,5.6,5.6,6.3c11.5,1.9,20.4,6.6,21.8,19.7c0.5,3.3,2.6,6.1,6.1,5.6
	C786.8,184.5,786.3,180.8,786.3,176.5z M484.4,92.2c-0.7-5.4-3.5-9.2-9.6-9.2c-5.4,0.2-8.7,3.5-8.9,8.9c-0.2,5.6,2.8,9.9,8.9,10.1
	C480.9,102.1,483.5,98.1,484.4,92.2z M830,78.6c1.2,9.6,9.6,13.2,12.9,20c1.4,3.1,3.3,5.2,7.3,4.2c2.1-0.5,3.8-1.2,3.8-3.5
	c0-3.3-0.7-7.5-3.3-8.2C842.9,88.7,839.4,80.2,830,78.6z M527.7,92.9c-0.7-5.4-3.3-9.4-8.9-9.4c-6.1,0-8.9,4-8.9,10.1
	c0.2,5.4,3.1,9.4,8.5,9.4C524.6,103,527,98.3,527.7,92.9z M555.4,82.6c-5.6,0-9.2,3.3-8.9,8.5c0,5.9,3.8,9.6,9.9,9.2
	c5.4-0.5,8.5-4,8.5-9.4C564.3,85.2,561,82.4,555.4,82.6z"/>
<g>
	<path class="st1" d="M690.9,230.3c0-74.7,0-149.2,0-223.9c76.6,0,153.4,0,230.2,0c0,74.7,0,149.2,0,223.9
		C844.6,230.3,767.7,230.3,690.9,230.3z M840.3,56.7c-1.4,0.7-1.2,1.9-0.7,2.8c0.5,0.9,1.4,1.6,2.6,1.4c1.2-0.2,2.3-0.2,3.3-0.5
		c-1.4,1.9-3.3,2.1-5.6,1.6c-4.9-1.2-10.1-0.7-15,0c-1.2,0.2-2.3,0.9-3.3-0.2c0.2-4-1.4-8.2,1.4-11.7c-1.9-0.5-2.8-2.3-2.6-5.9
		c0.9-2.1,0.5-4.2,0.5-6.6c0-4.2,0.2-8.5,3.5-11.5c1.2-1.2,2.6-2.3,4-3.5c0.5-0.5,1.4-0.9,0.7-2.1c-1.4,0.2-1.6,2.1-3.3,1.9
		c-0.7-1.4,1.4-1.9,0.7-3.3c-2.1,0-3.1,1.6-3.8,3.3c-1.4,3.5-4.9,5.6-5.2,10.1c0,1.6-1.4,3.8-1.2,5.9c-0.2,0.2-0.2,0.2-0.5,0.5
		c-0.9-0.2-1.9-1.4-2.8,0.2c0.7,1.9,2.3,4.2-0.7,6.1c-0.2,0,0,0.9,0,1.4c0.7,5.2,1.4,10.3,2.3,15.5c0.2,1.4,0.2,2.6,0,4
		c-3.1,1.4-3.1,2.6-0.5,4.7c1.6,1.4,4.2,2.1,5.4,4.2c-0.2,2.1-1.6,2.1-3.3,2.1c-1.9-2.6-3.8-5.4-6.8-6.8c-1.9-0.2-3.8,0-5.2-1.4
		c-1.6-2.3-4.2-3.1-6.8-3.5c-2.8-0.7-5.4-2.8-8.2-2.6c-4,0.2-8.5-3.1-11.7,1.9c-3.5-0.7-5.9,1.4-8.7,2.8c-3.1,1.4-6.8,3.1-8.2,5.9
		c-1.2,2.6-3.1,4-5.2,5.4c-1.9,1.4-4.2,2.3-6.1,4c-1.4,1.2-3.5,2.1-3.3,4.5c1.4,0.9,2.3,0.5,3.3-0.2c5.9-4.5,12-8.7,17.4-13.9
		c3.8-3.5,7.3-5.4,12.2-4.7c0.5,0,0.9,0,1.6,0c4.5,0.7,8.9,1.2,13.2,2.1c2.1,0.5,4.2,0.7,5.9,2.6c-6.3,4-12.7,8-18.6,12.9
		c-4.2,3.5-8.9,6.3-12.2,10.8l0,0l0,0c-0.5,0.5-0.7,0.9-1.2,1.2c-0.7,0.5-0.7,1.6-1.9,1.2c-0.5,0.7-0.9,1.2-1.4,1.9
		c-4.7,0.9-9.4,2.1-14.1,4.2c-10.1,4.7-17.9,12.7-27.2,18.3c-0.7,0.5-0.9,1.2-1.4,1.9c-0.7,1.2-0.2,2.8-1.4,3.8
		c-2.3,1.9-2.3,5.9-5.9,7c-1.2,0.5-0.7,1.9-0.7,2.8c-2.3,1.6-3.1,4.5-4.5,6.6c-2.3,4-5.2,8-4.2,13.2c0.5,2.6,0.9,5.2,0.9,7.8
		c0,2.8,2.3,5.2,5.2,5.4c-0.7-1.2-1.4-2.1-1.9-3.3c-0.5-0.9-0.9-1.9,0.2-3.1c2.6-1.9,2.1-4.5,0.9-7c-1.4-3.1-1.4-5.9,0.7-8.5
		c1.2,0.5,1.6,1.9,3.3,1.4c0.5-1.4-1.4-3.8,1.6-4l0,0l0,0c-0.2-2.6,1.2-4.5,2.8-6.3c3.1-3.5,5.2-7.8,7.8-11.7
		c1.9,2.3,0.2,5.4,0.9,8.7c0.9-1.6,1.4-2.6,1.4-4c-0.5-3.5,1.6-5.2,4.5-6.6c8-3.8,14.6-8.7,19.3-16.2c0.7-0.9,1.2-1.9,2.3-0.7
		c-0.2,1.9-1.4,3.1-2.3,4.5c-4.2,7-8.2,14.1-9.9,22.3l0,0c-0.7,0.7-0.7,1.6-0.7,2.6c-0.9,4-1.6,8-0.9,12.2c0.9,5.6,2.3,11,3.5,16.7
		c0.9,3.5,2.3,6.6,5.2,9.2c0.2,0.2,0.2,0.5,0.5,0.7c0.7,1.4,1.9,2.1,3.3,2.8c4.5,2.6,9.4,4,14.1,5.9c2.1,0.7,4,1.2,6.1,0.5
		c0.7,2.3,3.1,2.3,4.9,2.6c10.8,1.4,20.9-0.9,30.1-6.6c1.2-0.7,2.3-1.6,3.8-1.2c-0.9,2.6-3.1,4.7-4.5,7.3
		c-3.1,5.6-6.6,10.3-14.3,8.9c1.4,2.1,3.3,1.6,4.7,1.4c1.6-0.5,3.3-0.5,4.9-0.2c0,0.9-0.2,1.9-1.2,2.1c-3.1,1.6-5.2,4.2-8,6.1
		c-1.6,1.2-2.6,2.6-4.2,3.5c-2.3,1.6-4.9,2.3-7.8,1.4c-0.9,1.4,1.2,1.9,0.5,3.3c-2.8,0.7-5.6,2.1-8.7,0c-1.6-0.9-3.8-0.9-5.4-0.2
		c-2.6,1.2-3.8,0-4.2-2.1c-0.2-1.4-0.7-2.3-2.3-2.3c-0.2,3.8,2.3,7.8,5.9,8.2c2.3,0.5,4.2,0.9,6.3,1.9c1.6,0.7,3.5,1.2,5.2,0.5
		c5.4-2.3,11.5-3.5,15.5-8.2c0.2-0.2,0.7-0.5,0.9-0.7c4.5-1.4,8.2-3.5,9.9-8.2c3.3,1.2,5.2-0.5,6.1-3.5c0.5-0.9,0.9-2.1,1.6-3.1
		c6.6-6.1,11-13.9,15.5-21.4c2.1-3.8,4.9-7.3,4.9-11.7c8.9-8.5,16.7-18.1,23.5-29.1c0.2,1.6,0.5,2.1,0.5,2.8
		c0.5,4.2-0.9,8.2-2.3,12.2l0,0c1.4,0.2,1.4,1.2,0.9,2.1c-0.7,1.4-1.2,2.8-1.9,4c-3.1,5.9-7.8,10.6-12.2,15.3
		c-2.3,2.3-4.2,5.2-6.6,7.8c0.2,0.2,0.5,0.5,0.7,0.7c2.3-1.4,4.9-2.3,7-4.5c4.9-4.9,9.2-10.8,13.9-15.7c1.2-1.2,3.1-2.1,2.8-4.7
		c-0.2-1.6-0.2-3.3,2.3-3.1c1.2,0,1.4-1.2,1.2-2.1c-0.2-5.4,0.2-10.6-0.2-16c-0.5-3.1-2.1-5.9-2.1-8.9c0-3.5-1.6-5.6-4.5-7.3
		c-1.6-0.9-3.3-1.9-4.7-3.1c-8.9-5.4-17.6-11-23.7-20c-3.5-5.4-6.8-10.8-10.1-16.2c0.9-1.4,3.1-1.6,3.3-3.5c2.1,1.4,3.5,3.5,4.7,5.9
		c4.2,7.8,9.9,14.1,16.4,20c6.8,5.9,15.3,10.1,20.2,18.6c0.7-0.7,1.2-1.2,1.4-1.6c5.6,0.7,11,1.4,15.7,3.8c1.4-0.5,0.9-2.3,2.1-2.8
		c1.2,0.2,2.1,1.6,2.8,0.7c1.4-1.9,3.1-1.2,4.5-0.9c6.6,0.5,11.7-2.3,16.9-5.9c-0.9-1.9-1.9-2.3-3.8-1.6c-3.3,1.4-6.3,4-10.3,3.5
		c-3.5-0.2-7-0.7-10.6-1.2l0,0c-0.5-0.7-1.2-0.7-1.9-0.7c-4-1.4-8.5-1.4-12.9-1.9c2.3-7,2.6-13.9,1.4-20.7c0.9-2.8,1.2-6.1,3.5-8.5
		c-0.5,2.6-0.7,5.4,0.7,7.8c3.5-1.6,6.3-6.8,5.2-9.9c0,2.1-0.5,4-2.8,4.7c-0.7-0.9-1.4-1.9-1.9-2.6c0.7-1.9,0.2-3.1-1.6-3.8
		c-0.9-0.2-1.4-0.9-1.4-1.9l0,0c0.5-0.2,0.5-0.5,0-0.7c0-0.5,0-0.7,0-1.2l0.2-0.2l-0.2-0.2c-2.3-3.8-5.2-7-8.5-10.1
		c-2.6-2.3-4.9-4-8.7-2.8c-0.9-1.2-1.9-2.3-3.5-2.6c-1.2-1.6-3.3-0.9-4.7-2.1c0-2.1,2.6-3.3,2.6-5.9C843.4,51.1,842,54.2,840.3,56.7
		z"/>
	<path class="st2" d="M809.8,70.4c3.1,1.4,4.9,4.2,6.8,6.8c0,0.9,0.5,1.6,1.2,1.9c3.3,5.4,6.6,11,10.1,16.2
		c6.1,8.9,14.8,14.6,23.7,20c1.6,0.9,3.3,1.9,4.7,3.1c-2.1,0.7-4.2,1.4-6.1,2.3c-7.3,4.2-14.6,8.9-20.7,15
		c-7.5,7.5-13.9,15.7-20.2,24.2c-9.4,12.7-20,23.7-35.9,27.7c-2.1,0.7-4,0.2-6.1-0.5c-4.7-1.6-9.6-3.1-14.1-5.9
		c-1.2-0.7-2.3-1.6-3.3-2.8c0-0.2,0-0.5,0-0.7c5.4-3.8,10.3-7.5,14.6-12.7c0.5-0.2,0.9-0.2,1.4-0.5c4.2-0.7,8.2,0.2,11,3.1
		c2.6,2.6,0.9,5.6-0.2,8.5v0.2c-0.5,2.6,1.9,3.5,3.3,4.9c1.2,0.7,2.3,1.9,3.8,0.9c1.6-1.2,2.1-3.1,1.9-4.7
		c-0.7-4.5-1.4-8.9-3.3-13.2c-1.2-2.3-2.6-4-5.4-3.8c-1.6,0.2-3.3-0.2-4.7-1.4c0.2-0.5,0.9-0.9,0.7-1.6c0-0.2-0.7,0-1.2,0.2
		c-1.2-8.5-3.3-10.6-10.6-11.3c-2.3-0.2-4.5-0.5-6.3-1.6c-1.2-0.7-2.3-0.5-3.3,0.9c-0.9,1.9-1.9,3.8-1.9,5.9c0,3.3,1.9,5.2,4.9,5.2
		c1.4,0,2.6-0.5,4-0.9c3.8-1.4,5.9-0.2,6.6,3.8c0.2,1.4,0,2.8,0,4c-0.2,0.5-0.5,0.7-0.5,1.2c-4.2,2.6-7.5,6.3-11.3,9.4
		c-1.2,0.9-2.8,1.6-3.1,3.3c-0.2-0.2-0.2-0.2-0.5-0.2c-2.8-2.6-4.2-5.6-5.2-9.2c-1.2-5.4-2.6-11-3.5-16.7c-0.7-4,0-8.2,0.9-12.2
		c0.7-0.7,0.7-1.6,0.7-2.6l0,0c5.9-2.3,11.3-5.9,16-9.9c13.6-11.7,26.3-24.4,39.5-36.9c1.9-1.6,3.3-3.8,3.3-6.3
		c0-2.8,1.4-4.5,2.8-6.3C806.3,75.5,808.9,73.7,809.8,70.4z M773.6,157.8c0.9-0.7,1.4-0.9,1.6-1.4c15.7-14.6,31.5-29.1,47-43.7
		c2.1-1.9,4.2-3.3,7.3-2.8c1.9,0.2,3.8,0.2,5.9-1.9c-2.3,0-3.8,0-5.4,0c-2.8,0-4.2-0.9-4.5-4c-0.2-2.8,0.5-5.4,0.7-8.2
		c-2.3,2.8-3.1,6.3-2.8,9.9c0.2,1.6-0.2,2.8-1.4,4c-16.2,14.3-31.2,29.8-46.7,45.1C775.3,155.4,774.1,156.1,773.6,157.8z"/>
	<path class="st3" d="M773.8,187.8c16-4,26.5-15,35.9-27.7c6.1-8.5,12.7-16.7,20.2-24.2c6.1-6.1,13.4-10.6,20.7-15
		c1.9-1.2,4-1.6,6.1-2.3c2.8,1.6,4.5,4,4.5,7.3c0,3.1,1.6,5.9,2.1,8.9c0.7,5.4,0.2,10.8,0.2,16c0,0.9,0,2.1-1.2,2.1
		c-2.6-0.2-2.6,1.4-2.3,3.1c0.5,2.3-1.6,3.5-2.8,4.7c-4.7,5.2-8.9,10.8-13.9,15.7c-2.1,2.1-4.5,3.1-7,4.5c-0.2-0.2-0.5-0.5-0.7-0.7
		c2.1-2.6,4.2-5.4,6.6-7.8c4.7-4.7,9.2-9.4,12.2-15.3c0.7-1.4,1.2-2.6,1.9-4c0.5-0.9,0.5-1.9-0.9-2.1l0,0c1.4-4,2.8-7.8,2.3-12.2
		c0-0.7-0.2-1.4-0.5-2.8c-7,11-14.8,20.7-23.5,29.1c-1.2,0-1.6,0.9-2.3,1.6c-6.3,5.2-12.7,10.3-19,15.5c-1.4-0.5-2.6,0.5-3.8,1.2
		c-9.2,5.6-19.3,8-30.1,6.6C776.9,189.9,774.6,190.2,773.8,187.8z"/>
	<path class="st2" d="M864.1,118.3c-0.5,0.5-0.7,0.9-1.4,1.6c-4.9-8.2-13.2-12.7-20.2-18.6c-6.6-5.6-12.2-12.2-16.4-20
		c-1.2-2.1-2.6-4.2-4.7-5.9c-0.2-0.7-0.7-0.7-1.2-0.5c-1.2-2.1-3.5-2.8-5.4-4.2c-2.6-2.1-2.3-3.3,0.5-4.7c8.2-4,17.1-5.2,26.1-3.3
		c0.7,0.2,1.4,0.2,2.1,0.7c3.3,2.3,5.2,2.1,7.3-1.4c0.9,0.7,1.4-0.2,2.1-0.7c3.5-1.2,6.1,0.5,8.7,2.8c3.3,3.1,6.1,6.3,8.5,10.1
		c0,0.2,0,0.5,0,0.5c0,0.5,0,0.7,0,1.2c0,0.2,0,0.5,0,0.7l0,0c-1.9,2.1-0.9,5.9-3.8,7.3c-3.8-11.7-10.6-18.1-17.9-16.4
		c0,0.7,0.7,0.7,1.2,0.9c8.5,1.2,12.7,6.6,15,14.3c0.7,2.3,1.2,4.9,3.1,6.6l0,0c0.2,0.5,0.5,0.7,0.7,1.2c0.2,0,0.2,0.2,0.5,0.2
		c1.2,6.8,1.2,13.6-1.4,20.7c4.5,0.7,8.9,0.5,12.9,1.9c0.5,0.5,1.2,0.7,1.9,0.7l0,0c-2.6,1.6-5.2,4.2-8.9,2.1
		c-0.7-0.5-1.4-0.9-2.1-1.2C866.6,113.1,865.2,113.8,864.1,118.3z M828.6,76.9c0.9,1.9,3.3,2.6,3.5,4.5c0.5,4.2,3.8,6.1,6.6,8.5
		c0.7,0.7,1.2,1.4,1.9,2.1c2.3,2.8,4,5.9,4.9,9.4c2.1-0.9,4-1.6,6.1-1.4c1.4,0.2,2.8-0.7,2.1-2.6c-1.2-3.3-1.9-6.6-2.6-10.1
		c-0.2-0.7-0.5-1.4-1.6-1.2c-1.4,2.3-0.5,5.2-1.9,8.2C844.8,84.2,837.3,80,828.6,76.9z"/>
	<path class="st3" d="M809.8,70.4c-0.9,3.1-3.5,5.2-5.6,7.5c-1.6,1.9-2.8,3.8-2.8,6.3c0,2.6-1.6,4.5-3.3,6.3
		c-12.9,12.5-25.8,25.1-39.5,36.9c-4.7,4.2-9.9,7.8-16,9.9c1.6-8.2,5.6-15.3,9.9-22.3c0.9-1.4,2.1-2.6,2.3-4.5
		c1.9,0,2.3-1.2,2.8-2.6c-1.4-0.5-2.1,1.9-3.8,0.2c1.2-2.8,3.8-4.7,6.1-4.9s3.3-1.2,4.2-2.6c0.5-0.7,0.9-1.2,1.4-1.9
		c0.5-0.5,0.5-1.9,1.9-1.2c0.5-0.5,0.7-0.9,1.2-1.2l0,0c3.3-4.5,8-7.3,12.2-10.8c5.9-4.7,12.2-8.9,18.6-12.9c0.9-2.6-3.1-1.6-2.8-4
		c2.6,0.9,5.2,0.7,7.8,0.2C806.3,70.4,808.1,70.1,809.8,70.4z M760.5,104.7L760.5,104.7L760.5,104.7L760.5,104.7z"/>
	<path class="st2" d="M812.4,182.4c6.3-5.2,12.7-10.3,19-15.5c0.7-0.7,1.2-1.6,2.3-1.6c0,4.7-2.6,8.2-4.9,11.7
		c-4.5,7.8-8.7,15.5-15.5,21.4c-0.9,0.7-1.4,1.9-1.6,3.1c-1.2,3.1-2.8,4.7-6.1,3.5c-0.2-2.1,0.7-4.5-2.1-5.4c-1.6-0.2-3.3,0-4.9,0.2
		c-1.4,0.2-3.1,0.9-4.7-1.4c7.8,1.4,11.3-3.3,14.3-8.9C809.3,187.1,811.4,185.2,812.4,182.4z"/>
	<path class="st2" d="M764.5,100.9c-0.9,1.4-1.9,2.3-4.2,2.6s-5.2,2.1-6.1,4.9c1.6,1.6,2.3-0.7,3.8-0.2c-0.7,1.4-0.9,2.8-2.8,2.6
		c-1.2-1.2-1.9-0.2-2.3,0.7c-4.7,7.3-11.5,12.5-19.3,16.2c-2.6,1.2-4.7,3.1-4.5,6.6c0.2,1.2-0.5,2.3-1.4,4c-0.7-3.3,0.9-6.1-0.9-8.7
		c0-1.6,1.9-2.6,1.4-4.5c-1.6-0.7-3.3-0.5-4.7,0.7c-0.7,0.7-1.2,0.7-1.6-0.5c0.5-0.7,0.9-1.6,1.4-1.9c9.4-5.9,16.9-13.9,27.2-18.3
		C755.1,103,759.8,101.6,764.5,100.9z"/>
	<path class="st3" d="M803.4,199.6c2.8,0.9,1.9,3.5,2.1,5.4c-1.6,4.7-5.4,6.8-9.9,8.2c-0.5,0.2-0.7,0.5-0.9,0.7
		c-4,4.9-10.1,5.9-15.5,8.2c-1.6,0.7-3.5,0.5-5.2-0.5c-2.1-0.9-4-1.6-6.3-1.9c-3.3-0.5-6.1-4.7-5.9-8.2c1.6,0,1.9,1.2,2.3,2.3
		c0.5,2.3,1.6,3.5,4.2,2.1c1.6-0.7,3.8-0.9,5.4,0.2c3.1,1.9,5.9,0.7,8.7,0c0.7-1.4-1.2-1.9-0.5-3.3c2.8,0.9,5.4,0.2,7.8-1.4
		c1.4-0.9,2.6-2.6,4.2-3.5c2.8-1.9,4.7-4.7,8-6.1C803,201.4,803.4,200.5,803.4,199.6z"/>
	<path class="st3" d="M850.9,62.2c-2.1,3.5-4,3.8-7.3,1.4c-0.5-0.5-1.4-0.5-2.1-0.7c-9.2-1.9-17.9-0.7-26.1,3.3c0.2-1.4,0.2-2.6,0-4
		c-0.7-5.2-1.4-10.3-2.3-15.5c0-0.5-0.2-1.4,0-1.4c3.1-1.9,1.4-4,0.7-6.1c1.2-1.4,2.1-0.5,2.8-0.2c0.2,0,0.2,0,0.5,0.2
		c0-0.2,0-0.5,0-0.7c-0.2-2.1,0.9-4.2,1.2-5.9c0.2-4.5,3.5-6.6,5.2-10.1c0.7-1.6,1.6-3.1,3.8-3.3c0.7,1.4-1.4,1.9-0.7,3.3
		c1.6,0.2,1.9-1.9,3.3-1.9c0.7,1.2-0.2,1.6-0.7,2.1c-1.2,1.2-2.6,2.3-4,3.5c-3.3,3.3-3.5,7.3-3.5,11.5c0,2.1,0.5,4.5-0.5,6.6
		c-0.2-1.2,0-2.8-1.4-3.5c-4.5,6.3-3.3,15,2.6,21.1c0.9,1.2,2.1,0.5,3.3,0.2c4.9-0.9,10.1-1.4,15,0c2.3,0.5,4.2,0.2,5.6-1.6
		c0,0,0.2,0,0.2-0.2C847.1,62.6,849.5,60.5,850.9,62.2z"/>
	<path class="st3" d="M780.9,68.3c-0.5,0-1.2,0.2-1.6,0c-4.9-0.7-8.5,1.2-12.2,4.7c-5.2,5.2-11.5,9.4-17.4,13.9
		c-0.9,0.7-2.1,1.2-3.3,0.2c-0.2-2.3,1.9-3.3,3.3-4.5c1.9-1.4,4-2.6,6.1-4c2.1-1.4,4-2.8,5.2-5.4c1.4-3.1,5.2-4.5,8.2-5.9
		c2.8-1.4,5.4-3.5,8.7-2.8c3.3-4.7,7.8-1.4,11.7-1.9c3.1-0.2,5.4,1.9,8.2,2.6c-0.9,2.1-2.1,2.6-4.5,2.3c-2.1-0.5-4.5-0.7-6.6-1.2
		c-4-1.2-8-0.5-12.2,1.2C776.9,68,779,67.1,780.9,68.3z"/>
	<path class="st3" d="M864.1,118.3c0.9-4.5,2.6-5.4,6.8-3.3c0.7,0.5,1.4,0.7,2.1,1.2c3.5,2.1,6.1-0.5,8.9-2.1
		c3.5,0.5,7,0.9,10.6,1.2c4,0.2,6.8-2.3,10.3-3.5c1.9-0.7,2.6-0.5,3.8,1.6c-5.2,3.5-10.3,6.3-16.9,5.9c-1.6-0.2-3.3-0.9-4.5,0.9
		c-0.7,0.9-1.9-0.5-2.8-0.7c-1.2,0.5-0.5,2.3-2.1,2.8C875.1,119.7,869.7,119,864.1,118.3z"/>
	<path class="st3" d="M721.7,125.3c0.2,1.2,0.9,0.9,1.6,0.5c1.4-1.2,3.1-1.4,4.7-0.7c0.5,1.9-1.4,2.8-1.4,4.5
		c-2.6,4-4.7,8.2-7.8,11.7c-1.6,2.1-3.1,3.8-2.8,6.3l0,0c-3.3,0-1.2,2.6-1.6,4c-1.4,0.5-2.1-0.9-3.3-1.4c0.2-1.4-1.4-1.6-1.6-2.3
		c1.6-1.6,3.3-3.1,4.5-4.7c0.9-1.2,2.1-2.8-0.2-4.2c0-0.9-0.5-2.3,0.7-2.8c3.5-1.2,3.5-4.9,5.9-7C721.5,127.9,721,126.5,721.7,125.3
		z"/>
	<path class="st2" d="M713.7,138.7c2.3,1.2,1.2,2.8,0.2,4.2c-1.2,1.6-2.8,3.1-4.5,4.7c0.2,0.9,1.9,1.2,1.6,2.3
		c-2.1,2.6-2.1,5.6-0.7,8.5c1.2,2.6,1.6,5.2-0.9,7c-1.4,0.9-0.7,2.1-0.2,3.1c0.5,1.2,1.2,2.1,1.9,3.3c-2.6-0.5-4.9-2.6-5.2-5.4
		c0-2.6-0.5-5.2-0.9-7.8c-0.9-5.2,2.1-9.2,4.2-13.2C710.7,143.2,711.6,140.4,713.7,138.7z"/>
	<path class="st2" d="M780.9,68.3c-1.9-1.2-3.8-0.2-6.1-0.9c4.2-1.4,8.2-2.1,12.2-1.2c2.1,0.7,4.2,0.9,6.6,1.2
		c2.3,0.5,3.5-0.2,4.5-2.3c2.6,0.7,5.2,1.4,6.8,3.5c-2.6,0.5-5.2,0.7-7.8-0.2c-0.2,2.3,3.8,1.4,2.8,4c-1.4-1.9-3.8-2.1-5.9-2.6
		C789.8,69.4,785.1,69,780.9,68.3z"/>
	<path class="st2" d="M821.8,61.9c-5.9-6.3-7-14.8-2.6-21.1c1.4,0.9,1.2,2.3,1.4,3.5c0,3.3,0.7,5.4,2.6,5.9
		C820.4,53.9,822,58.2,821.8,61.9z"/>
	<path class="st3" d="M868.5,90.8c-0.2,0-0.2,0-0.5-0.2c0-0.5,0-0.9-0.7-1.2l0,0c-0.5-1.9-0.9-3.5-1.4-5.4c3.1-1.6,1.9-5.2,3.8-7.3
		c0,0.9,0.7,1.4,1.4,1.9c1.9,0.7,2.3,2.1,1.6,3.8c-0.5,0-0.7,0-1.2,0C869.7,84.7,869.5,87.8,868.5,90.8z"/>
	<path class="st3" d="M840.3,56.7c1.6-2.6,3.1-5.6,6.8-5.9c0,2.6-2.6,3.5-2.6,5.9c1.4,1.2,3.5,0.5,4.7,2.1c-1.2,0.2-2.1,0.2-3.3,0.5
		C844.3,58.2,841.5,59.3,840.3,56.7z M843.9,57.2c0,0.2-0.2,0.2-0.2,0.5l0.2,0.2c0,0,0.2,0,0.2-0.2
		C843.9,57.7,843.9,57.5,843.9,57.2z"/>
	<path class="st4" d="M871.8,82.4c0.5,0,0.7,0,1.2,0c0.7,0.7,1.2,1.6,1.9,2.6c2.3-0.7,3.1-2.6,2.8-4.7c0.9,3.1-1.6,8.2-5.2,9.9
		C871.3,87.5,871.6,84.9,871.8,82.4z M874.9,85.6C874.9,85.6,874.6,85.6,874.9,85.6c-0.2-0.2-0.2,0-0.5,0
		C874.6,85.9,874.6,85.9,874.9,85.6C874.6,85.9,874.9,85.9,874.9,85.6z"/>
	<path class="st5" d="M846.2,59.3c1.2-0.2,2.1-0.2,3.3-0.5c1.6,0.2,2.6,1.4,3.5,2.6c-0.7,0.5-0.9,1.4-2.1,0.7
		c-1.2-1.6-3.8,0.2-4.9-1.9C846,60,846.2,59.6,846.2,59.3z"/>
	<path class="st4" d="M846.2,59.3c0,0.5-0.2,0.7-0.2,1.2c0,0-0.2,0-0.2,0.2c-1.2,0-2.3,0.2-3.3,0.5c-1.2,0.2-2.1-0.5-2.6-1.4
		c-0.7-0.9-0.7-2.1,0.7-2.8C841.5,59.3,844.3,58.2,846.2,59.3z"/>
	<path class="st3" d="M820.1,75.3c0.5,0,1.2-0.2,1.2,0.5c-0.5,1.9-2.3,2.1-3.3,3.5c-0.7-0.5-1.2-1.2-1.2-1.9
		C818.2,77.4,819.9,77.4,820.1,75.3z"/>
	<path class="st2" d="M767.7,97.9c-1.2-0.7-1.4,0.5-1.9,1.2C767,99.3,767.3,98.1,767.7,97.9z"/>
	<path class="st3" d="M742.8,137.3c0.2,0.9,0,1.9-0.7,2.6C741.9,139,742.1,138.3,742.8,137.3z"/>
	<path class="st2" d="M768.9,96.4L768.9,96.4L768.9,96.4z"/>
	<path class="st3" d="M881.9,114.1c-0.7,0-1.4,0-1.9-0.7C880.7,113.4,881.4,113.1,881.9,114.1z"/>
	<path class="st3" d="M869.9,76.7c0-0.2,0-0.5,0-0.7C870.4,76.2,870.4,76.5,869.9,76.7z"/>
	<path class="st3" d="M869.9,74.8c-0.2-0.2-0.2-0.2,0-0.5C869.9,74.4,870.2,74.6,869.9,74.8C870.2,74.6,869.9,74.8,869.9,74.8z"/>
	<polygon class="st3" points="716.1,147.7 716.3,147.7 716.1,147.4 	"/>
	<path class="st3" d="M855.4,151.4L855.4,151.4L855.4,151.4z"/>
	<path class="st3" d="M749.9,177.7c0.2,0,0.5,0,0.5,0.2l0,0c0,0.2,0,0.5,0,0.7C750.1,178.2,749.9,178,749.9,177.7z"/>
	<path class="st6" d="M765.4,163.9c0-1.4,0.2-2.8,0-4c-0.7-4.2-2.8-5.2-6.6-3.8c-1.2,0.5-2.6,0.9-4,0.9c-3.3,0.2-5.2-1.9-4.9-5.2
		c0-2.1,0.9-4,1.9-5.9c0.7-1.4,1.9-1.6,3.3-0.9c1.9,1.2,4.2,1.4,6.3,1.6c7.5,0.7,9.6,3.1,10.6,11.3
		C769.9,160.3,767.7,162.5,765.4,163.9z"/>
	<path class="st3" d="M773.6,157.8c0.5-1.9,1.4-2.3,2.1-3.1c15.3-15.3,30.5-30.8,46.7-45.1c1.2-1.2,1.4-2.3,1.4-4
		c-0.2-3.5,0.2-6.8,2.8-9.9c-0.2,2.8-1.2,5.4-0.7,8.2c0.2,3.1,1.6,4,4.5,4c1.6,0,3.1,0,5.4,0c-2.1,2.1-4,1.9-5.9,1.9
		c-3.1-0.2-5.2,0.9-7.3,2.8c-15.5,14.6-31.2,29.1-47,43.7C775,156.8,774.6,157.1,773.6,157.8z"/>
	<path class="st6" d="M772.4,159.6c1.4,1.2,3.1,1.4,4.7,1.4c3.1-0.2,4.5,1.4,5.4,3.8c1.9,4.2,2.6,8.7,3.3,13.2
		c0.2,1.9-0.2,3.8-1.9,4.7c-1.4,0.9-2.6-0.2-3.8-0.9c-1.6-1.2-3.8-2.1-3.3-4.9v-0.2c0.9-2.8,2.8-5.9,0.2-8.5
		c-3.1-2.8-6.8-3.8-11-3.1C768.2,163.2,770.1,161,772.4,159.6z"/>
	<path class="st3" d="M750.4,178c0.2-1.9,1.9-2.3,3.1-3.3c3.8-3.1,7-6.8,11.3-9.4l0.2,0.2C760.7,170.2,755.5,174.2,750.4,178
		L750.4,178z"/>
	<path class="st3" d="M772.4,159.6c-2.3,1.4-4.2,3.3-6.1,5.2c-0.5,0.2-0.9,0.2-1.4,0.5l-0.2-0.2c0.2-0.5,0.5-0.7,0.5-1.2
		c2.3-1.6,4.5-3.8,6.6-5.6c0.5,0,0.9-0.2,1.2-0.2C773.4,158.7,772.4,159.2,772.4,159.6z"/>
	<path class="st6" d="M828.6,76.9c8.7,3.1,16.4,7.3,18.8,17.6c1.2-3.1,0.5-5.9,1.9-8.2c1.2-0.2,1.4,0.7,1.6,1.2
		c0.7,3.5,1.4,6.8,2.6,10.1c0.7,1.9-0.5,2.8-2.1,2.6c-2.1-0.2-4,0.2-6.1,1.4c-0.9-3.8-2.8-6.6-4.9-9.4c-0.7-0.7-1.2-1.6-1.9-2.1
		c-2.8-2.3-6.1-4.2-6.6-8.5C831.9,79.8,829.5,78.8,828.6,76.9z"/>
	<path class="st6" d="M866.2,84c0.5,1.9,0.9,3.5,1.4,5.4c-2.1-1.9-2.3-4.2-3.1-6.6c-2.3-7.5-6.6-13.2-15-14.3c-0.5,0-1.2,0-1.2-0.9
		C855.4,66.1,862.2,72.3,866.2,84z"/>
	<path class="st6" d="M867.3,89.2c0.7,0.2,0.7,0.7,0.7,1.2C867.8,90.1,867.6,89.6,867.3,89.2z"/>
	<polygon class="st2" points="760.5,104.7 760.5,104.9 760.5,104.9 	"/>
	<path class="st1" d="M817.1,38.4c0,0.2,0,0.5,0,0.7c-0.2,0-0.2,0-0.5-0.2C816.6,38.9,816.8,38.7,817.1,38.4z"/>
	<path class="st1" d="M843.9,57.2c0,0.2,0.2,0.2,0.2,0.5l-0.2,0.2l-0.2-0.2C843.6,57.7,843.6,57.5,843.9,57.2z"/>
	<path class="st1" d="M874.9,85.6C874.9,85.9,874.6,85.9,874.9,85.6c-0.2,0.2-0.2,0-0.5,0C874.6,85.6,874.6,85.6,874.9,85.6
		C874.6,85.6,874.9,85.6,874.9,85.6z"/>
</g>
<path class="st7" d="M284.5,145.3c0.2,3.1,8.9,7.8,13.9,3.5c3.1-2.6,4-7.8,2.1-9.4C297.2,136.1,284.3,141.5,284.5,145.3z"/>
<path class="st0" d="M512.9,87.3c-2.3,2.8-1.4,7.8,1.9,9.9c3.5,2.3,8.9,0.9,10.3-2.8c1.2-3.1-0.9-6.6-3.8-8.2
	C518.7,84.9,514.7,84.9,512.9,87.3z"/>
<path class="st0" d="M550.2,86.6c-2.3,2.8-1.4,7.8,1.9,9.9c3.5,2.3,8.9,0.9,10.3-2.8c1.2-3.1-0.9-6.6-3.8-8.2
	C556.1,84.2,552.3,84.2,550.2,86.6z"/>
</svg>
