<svg xmlns="http://www.w3.org/2000/svg" viewBox="0 0 180.76 180.76"><defs><style>.cls-1{font-size:20px;fill:#e72586;font-family:Exo-Black, Exo;font-weight:800;}</style></defs><title>3D modeling</title><g id="Livello_2" data-name="Livello 2"><g id="Livello_5" data-name="Livello 5"><text class="cls-1" transform="translate(90.15 17.1) rotate(4.26)">3</text><text class="cls-1" transform="translate(101.81 17.88) rotate(14.29)">D</text><text class="cls-1" transform="matrix(0.93, 0.37, -0.37, 0.93, 115.32, 21.64)"> </text><text class="cls-1" transform="translate(120.4 23.12) rotate(31.24)">M</text><text class="cls-1" transform="matrix(0.72, 0.69, -0.69, 0.72, 135.64, 32.59)">O</text><text class="cls-1" transform="translate(145.98 42.48) rotate(54.58)">D</text><text class="cls-1" transform="translate(153.97 53.86) rotate(64.82)">E</text><text class="cls-1" transform="matrix(0.28, 0.96, -0.96, 0.28, 159.14, 65.03)">L</text><text class="cls-1" transform="translate(162.04 75.72) rotate(80.88)">I</text><text class="cls-1" transform="matrix(0.02, 1, -1, 0.02, 163.31, 81.95)">N</text><text class="cls-1" transform="matrix(-0.17, 0.98, -0.98, -0.17, 163.51, 96.47)">G</text><text class="cls-1" transform="matrix(-0.3, 0.95, -0.95, -0.3, 160.83, 109.99)"> </text><text class="cls-1" transform="translate(159.21 115.19) rotate(112.62)">-</text><text class="cls-1" transform="translate(156.27 122.09) rotate(117.71)"> </text><text class="cls-1" transform="matrix(-0.57, 0.82, -0.82, -0.57, 153.92, 126.92)">3</text><text class="cls-1" transform="translate(147.38 136.61) rotate(134.42)">D</text><text class="cls-1" transform="matrix(-0.79, 0.62, -0.62, -0.79, 137.33, 146.42)"> </text><text class="cls-1" transform="translate(133.5 150.08) rotate(151.25)">M</text><text class="cls-1" transform="translate(117.69 158.54) rotate(163.72)">O</text><text class="cls-1" transform="translate(103.95 162.51) rotate(174.79)">D</text><text class="cls-1" transform="translate(90.08 163.69) rotate(-175.11)">E</text><text class="cls-1" transform="translate(77.85 162.58) rotate(-166)">L</text><text class="cls-1" transform="translate(67.13 159.74) rotate(-159.07)">I</text><text class="cls-1" transform="matrix(-0.87, -0.49, 0.49, -0.87, 61.08, 157.72)">N</text><text class="cls-1" transform="translate(48.45 150.6) rotate(-139.85)">G</text><text class="cls-1" transform="translate(38.09 141.47) rotate(-132.4)"> </text><text class="cls-1" transform="matrix(-0.61, -0.79, 0.79, -0.61, 34.41, 137.48)">-</text><text class="cls-1" transform="translate(29.9 131.46) rotate(-122.28)"> </text><text class="cls-1" transform="matrix(-0.43, -0.9, 0.9, -0.43, 26.89, 127.02)">3</text><text class="cls-1" transform="translate(21.78 116.53) rotate(-105.45)">D</text><text class="cls-1" transform="translate(18.34 102.91) rotate(-97.83)"> </text><text class="cls-1" transform="translate(17.12 97.76) rotate(-88.64)">M</text><text class="cls-1" transform="matrix(0.24, -0.97, 0.97, 0.24, 17.73, 79.82)">O</text><text class="cls-1" transform="translate(21.16 65.95) rotate(-65.15)">D</text><text class="cls-1" transform="matrix(0.57, -0.82, 0.82, 0.57, 27.09, 53.36)">E</text><text class="cls-1" transform="translate(34.21 43.35) rotate(-45.85)">L</text><text class="cls-1" transform="matrix(0.78, -0.63, 0.63, 0.78, 42.05, 35.5)">I</text><text class="cls-1" transform="translate(46.82 31.28) rotate(-30.83)">N</text><text class="cls-1" transform="translate(59.3 23.89) rotate(-19.78)">G</text><text class="cls-1" transform="translate(72.38 19.51) rotate(-12.24)"> </text><text class="cls-1" transform="translate(77.68 18.33) rotate(-7.15)">-</text></g></g></svg>