<svg xmlns="http://www.w3.org/2000/svg" viewBox="0 0 180.76 180.76"><defs><style>.cls-1{font-size:20px;fill:#f2f2f2;font-family:Exo-Black, Exo;font-weight:800;}</style></defs><title>Photography</title><g id="Livello_2" data-name="Livello 2"><g id="Livello_1-2" data-name="Livello 1"><text class="cls-1" transform="translate(90.13 17.05) rotate(4.69)">P</text><text class="cls-1" transform="translate(102.19 17.91) rotate(14.83)">H</text><text class="cls-1" transform="matrix(0.9, 0.43, -0.43, 0.9, 115.52, 21.39)">O</text><text class="cls-1" transform="matrix(0.82, 0.58, -0.58, 0.82, 127.67, 27.25)">T</text><text class="cls-1" transform="matrix(0.71, 0.71, -0.71, 0.71, 137.04, 33.71)">O</text><text class="cls-1" transform="matrix(0.57, 0.82, -0.82, 0.57, 146.66, 43.3)">G</text><text class="cls-1" transform="translate(154.05 53.95) rotate(65.19)">R</text><text class="cls-1" transform="translate(159.26 64.99) rotate(75.21)">A</text><text class="cls-1" transform="matrix(0.08, 1, -1, 0.08, 162.65, 77.84)">P</text><text class="cls-1" transform="translate(163.79 89.89) rotate(95.17)">H</text><text class="cls-1" transform="translate(162.52 103.65) rotate(105.34)">Y</text><text class="cls-1" transform="matrix(-0.37, 0.93, -0.93, -0.37, 159.08, 115.42)"> </text><text class="cls-1" transform="translate(157.36 119.84) rotate(116.55)">-</text><text class="cls-1" transform="translate(154.29 125.92) rotate(121.09)"> </text><text class="cls-1" transform="matrix(-0.61, 0.79, -0.79, -0.61, 152.1, 130)">P</text><text class="cls-1" transform="translate(144.78 139.68) rotate(137.77)">H</text><text class="cls-1" transform="translate(134.63 148.96) rotate(148.41)">O</text><text class="cls-1" transform="translate(123.1 156) rotate(158.17)">T</text><text class="cls-1" transform="translate(112.61 160.36) rotate(167.96)">O</text><text class="cls-1" transform="translate(99.34 163.21) rotate(178.3)">G</text><text class="cls-1" transform="matrix(-0.99, -0.14, 0.14, -0.99, 86.39, 163.62)">R</text><text class="cls-1" transform="matrix(-0.95, -0.31, 0.31, -0.95, 74.24, 161.99)">A</text><text class="cls-1" transform="matrix(-0.88, -0.47, 0.47, -0.88, 61.63, 157.87)">P</text><text class="cls-1" transform="translate(50.89 152.28) rotate(-141.82)">H</text><text class="cls-1" transform="translate(40.06 143.73) rotate(-131.73)">Y</text><text class="cls-1" transform="translate(32.03 134.43) rotate(-125.14)"> </text><text class="cls-1" transform="translate(29.26 130.58) rotate(-120.61)">-</text><text class="cls-1" transform="matrix(-0.44, -0.9, 0.9, -0.44, 25.81, 124.7)"> </text><text class="cls-1" transform="translate(23.56 120.66) rotate(-109.43)">P</text><text class="cls-1" transform="translate(19.42 109.27) rotate(-99.23)">H</text><text class="cls-1" transform="translate(17.17 95.69) rotate(-88.64)">O</text><text class="cls-1" transform="translate(17.52 82.19) rotate(-78.95)">T</text><text class="cls-1" transform="matrix(0.36, -0.93, 0.93, 0.36, 19.55, 71.01)">O</text><text class="cls-1" transform="matrix(0.52, -0.86, 0.86, 0.52, 24.37, 58.31)">G</text><text class="cls-1" transform="translate(31.07 47.23) rotate(-48.93)">R</text><text class="cls-1" transform="matrix(0.78, -0.63, 0.63, 0.78, 39.04, 37.94)">A</text><text class="cls-1" transform="translate(49.08 29.81) rotate(-29.7)">F</text><text class="cls-1" transform="matrix(0.94, -0.35, 0.35, 0.94, 58.9, 24.12)">Y</text><text class="cls-1" transform="translate(70.49 20.01) rotate(-13.78)"> </text><text class="cls-1" transform="translate(75.05 18.84) rotate(-9.25)">-</text><text class="cls-1" transform="translate(81.8 17.77) rotate(-4.71)"> </text></g></g></svg>