<svg xmlns="http://www.w3.org/2000/svg" viewBox="0 0 199.14 199.14"><defs><style>.cls-1{font-size:21px;fill:#f2f2f2;font-family:Exo-Black, Exo;font-weight:800;}</style></defs><title>Risorsa 3</title><g id="Livello_2" data-name="Livello 2"><g id="Works"><circle cx="99.57" cy="99.57" r="99.57"/><text class="cls-1" transform="translate(80.64 21.78) rotate(-6.14)">W</text><text class="cls-1" transform="matrix(0.99, 0.12, -0.12, 0.99, 101.8, 19.89)">O</text><text class="cls-1" transform="translate(117.32 21.9) rotate(17.7)">R</text><text class="cls-1" transform="translate(130.87 26.27) rotate(28.25)">K</text><text class="cls-1" transform="matrix(0.78, 0.62, -0.62, 0.78, 143.94, 33.46)">S</text><text class="cls-1" transform="translate(154.35 42.08) rotate(45.51)"> </text><text class="cls-1" transform="translate(158.81 46.62) rotate(50.85)">-</text><text class="cls-1" transform="matrix(0.56, 0.83, -0.83, 0.56, 164.11, 53.29)"> </text><text class="cls-1" transform="translate(168.04 58.07) rotate(66.22)">W</text><text class="cls-1" transform="matrix(0.18, 0.98, -0.98, 0.18, 176.23, 77.63)">O</text><text class="cls-1" transform="translate(179.05 93.01) rotate(90.93)">R</text><text class="cls-1" transform="translate(178.88 107.32) rotate(100.6)">K</text><text class="cls-1" transform="matrix(-0.36, 0.93, -0.93, -0.36, 175.99, 121.97)">S</text><text class="cls-1" transform="translate(170.92 134.48) rotate(118.01)"> </text><text class="cls-1" transform="matrix(-0.55, 0.84, -0.84, -0.55, 167.94, 140.07)">-</text><text class="cls-1" transform="matrix(-0.63, 0.78, -0.78, -0.63, 163.15, 147.15)"> </text><text class="cls-1" transform="matrix(-0.75, 0.66, -0.66, -0.75, 159.79, 152.3)">W</text><text class="cls-1" transform="translate(143.58 166.04) rotate(151.79)">O</text><text class="cls-1" transform="translate(129.73 173.31) rotate(162.61)">R</text><text class="cls-1" transform="translate(116.13 177.53) rotate(173.16)">K</text><text class="cls-1" transform="matrix(-1, -0.06, 0.06, -1, 101.27, 179.16)">S</text><text class="cls-1" transform="translate(87.8 178.11) rotate(-169.65)"> </text><text class="cls-1" transform="matrix(-0.96, -0.27, 0.27, -0.96, 81.57, 176.98)">-</text><text class="cls-1" transform="translate(73.4 174.57) rotate(-158.85)"> </text><text class="cls-1" transform="translate(67.45 172.91) rotate(-148.82)">W</text><text class="cls-1" transform="matrix(-0.72, -0.7, 0.7, -0.72, 49.47, 161.57)">O</text><text class="cls-1" transform="matrix(-0.57, -0.82, 0.82, -0.57, 38.38, 150.56)">R</text><text class="cls-1" transform="translate(30.23 138.85) rotate(-114.48)">K</text><text class="cls-1" transform="translate(24.18 125.21) rotate(-104.23)">S</text><text class="cls-1" transform="translate(21.14 112.07) rotate(-97.09)"> </text><text class="cls-1" transform="translate(20.36 105.75) rotate(-91.75)">-</text><text class="cls-1" transform="translate(20.2 97.22) rotate(-86.46)"> </text><text class="cls-1" transform="translate(19.97 91.04) rotate(-76.46)">W</text><text class="cls-1" transform="translate(25.32 70.5) rotate(-63.23)">O</text><text class="cls-1" transform="translate(32.49 56.61) rotate(-52.48)">R</text><text class="cls-1" transform="matrix(0.74, -0.67, 0.67, 0.74, 41.21, 45.33)">K</text><text class="cls-1" transform="translate(52.38 35.44) rotate(-31.89)">S</text><text class="cls-1" transform="matrix(0.91, -0.42, 0.42, 0.91, 64, 28.55)"> </text><text class="cls-1" transform="translate(69.78 25.89) rotate(-19.34)">-</text></g></g></svg>